<svg xmlns="http://www.w3.org/2000/svg" viewBox="0 0 5200 1196" width="5200" height="1196" role="img" aria-label="水木验码">
  <title>水木验码</title>
  <g fill="#4C1D95" stroke="none" transform="translate(-1729,-838)">
<g transform="translate(0.000000,2896.000000) scale(0.100000,-0.100000)">
  <path d="M35292 20568 l-12-12 0-1112 0-1113-16-15-15-16-2188 0-2187 0-20-14-19-14-3-1004-3-1003 13-18 13-17 1827-3 1827-2 12-12 12-12-63-123 c-71-138-230-430-269-496-136-224-296-471-408-627-84-118-343-453-452-585-406-492-1104-1181-1591-1570-58-46-145-118-194-159-175-148-487-383-749-565-108-76-202-146-207-156 l-10-18 0-1276 c-1-702 2-1281 5-1286 9-14 39-12 53 2 13 13 127
79 167 97 20 9 463 281 603 370 775 493 1564 1114 2185 1721 155 150 466 480
548 580 30 36 94 112 144 170 96 111 288 357 367 469 129 183 381 564 413 626
90 169 178 316 189 312 l11-4 3-2523 c1-1388 6-2528 10-2532 5-5 514-8
1132-8 l1124 0 8 12 c4 7 8 1144 8 2526 0 1382 2 2518 5 2523 4 5 10 9 15 9
4 0 33-44 65-97 85-148 117-199 271-433 49-74 101-151 115-170 14-19
65-89 114-155 219-299 322-426 569-705 248-280 721-752 989-987 390-342 605-515 987-796 332-243 497-356 665-455 39-23 122-75 185-116
106-69 261-163 370-224 25-14 95-53 155-87 61-34 131-73 156-87 25-14 55-31 66-38 11-7 28-10 37-7 l16 6 1 188 c2 746-3 2377-8 2389-3
8-86 69-184 134-214 143-398 275-649 463-383 290-479 369-885 726-531 467-1146 1145-1522 1676-152 216-241 353-380 585-162 271-194 330-269 485-37 77-76 152-86 168-11 15-18 35-16 45 l3 17 285 5 c157 3
1009 6 1894 7 l1609 2 8 13 c5 7 9 468 9 1023 l0 1011-12 12-12 12-2271 0-2271 0-12 12-12 12 0 1117 0 1117-14 11-13 11-1115 0-1114 0-12-12z"/>
  <path d="M22402 20468 l-12-12 0-4625 0-4626-15-97-14-97-31-53 c-16-29-38-63-48-74-23-29-88-69-143-87 l-44-15-624-6 c-343-4-628-9-632-12-5-3-9-450-9-993 l0-989 13-10 12-10 1180 3 1180 2 55 11
c30 6 91 15 135 21 292 40 564 131 735 246 247 167 417 477 475 870 9 61 20
190 25 288 5 98 9 1027 9 2065 l-1 1887 16 3 16 3 18-31 c104-192 462-751
668-1045 313-448 851-1153 1064-1395 36-41 104-120 150-175 237-280
711-781 960-1014 192-178 397-362 479-430 36-29 95-79 131-111 74-64
276-234 393-328 43-35 85-62 94-60 l17 3 43 115 c24 63 61 162 83 220 21
58 48 130 60 160 25 65 55 145 81 215 9 28 27 75 39 105 12 30 28 73 35 95 8
22 28 76 45 120 17 44 46 121 65 170 18 50 52 142 75 205 24 63 49 133 57 155
7 22 18 49 23 60 5 11 16 38 24 60 8 22 23 63 34 90 39 98 64 161 83 215 11
30 24 59 29 64 29 29 1 69-115 166-22 18-71 61-110 95-38 34-131 116-205 182-244 217-970 948-1141 1149-24 28-83 94-130 145-82 90-320
374-461 550-184 229-255 320-393 505-260 348-535 751-535 785 0 11 48
58 118 116 360 300 869 786 1327 1269 99 104 194 205 210 224 17 19 84 96 150
170 67 74 152 173 190 220 39 47 115 139 170 205 151 180 359 451 505 657 119
167 316 458 365 538 11 19 27 44 35 56 l15 23-10 10 c-13 11-658 17-1642
14 l-752-3-90-122 c-428-580-1271-1603-1643-1992 l-66-69-16 6 c-9
4-16 16-16 28 0 12-7 45-15 73-8 28-28 101-45 161-45 162-193 587-266 765-35 85-98 250-140 365 l-76 210-3 1169-3 1169-13 8 c-8 5-509
9-1114 9 l-1101 0-12-12z"/>
  <path d="M51035 20458 c-9-13-52-77-95-143-176-265-456-652-635-875-265-331-306-379-578-677-308-338-623-641-992-955-115-98-225-192-242-207 l-33-28 0-912 0-912 14-5 c16-6 531 248 581 286 6 5
37 22 70 40 33 17 90 50 127 73 37 23 123 75 190 116 68 41 132 83 143 93 12
9 32 19 45 20 l25 3 6-75 c4-41 7-287 8-546 l1-472 13-11 14-11 2433 0
2433 0 14 12 15 12-3 81 c-2 44-2 295-1 558 l2 477 19 0 c11 0 42-15 68-32 119-82 813-479 974-559 75-36 134-59 143-56 l16 6 0 904 0 903-12
15 c-7 9-35 33-63 55-138 111-415 345-530 450-585 530-1013 1004-1525
1689-223 298-275 372-400 558 l-95 142-1067 3-1067 2-16-22z m1170-1745 c200-285 445-597 614-783 263-289 751-748 955-899 52-39 72-71
44-71-7 0-764 0-1682 0 l-1669-1-10 10-9 9 19 19 c11 10 58 48 104 84
150 118 369 321 609 565 129 132 262 270 295 309 33 38 97 112 142 163 90 102
260 322 368 477 127 180 139 196 155 193 8-2 37-35 65-75z"/>
  <path d="M43852 20218 l-12-12 0-821 0-821 12-12 12-12 1269 0 1268 0 20-10 19-11 0-87 c0-48-4-175-10-282-5-107-14-319-20-470-6-151-20-466-30-700-20-433-28-616-55-1260-8-201-18-379-20-397-3-17-13-34-21-37-9-3-177-6-374-6 l-359 0-11 20 c-6 12-9 28-6 38
3 9 12 161 21 337 8 176 20 379 25 450 5 72 14 229 20 350 5 121 16 335 25
475 8 140 19 350 25 465 7 116 15 284 20 375 l9 164-11 13-10 13-823 0-823 0-12-15 c-7-8-13-48-15-87-3-115-34-707-45-888-6-91-17-289-26-440-35-640-43-789-58-1050-15-267-26-474-46-865-6-104-15-266-20-360-20-343-32-655-26-679 l6-24 1458 2 1459 1 16-14 17-13-1-1072 c-1-589-4-1197-8-1351 l-7-280-23-59 c-29-72-84-129-160-164 l-56-27-745-3-745-3-12-16-13-17 0-882 0-883
15-15 15-14 1062-1 c585-1 1122 3 1193 8 189 14 425 59 568 111 164 59
350 191 444 315 62 81 131 212 161 305 60 188 98 432 112 720 l10 216 0 2408
0 2409-11 13-11 14-228 0-228 0-13 16-13 16 22 316 c30 413 39 564 57
867 8 138 19 309 25 380 5 72 14 231 20 355 5 124 15 270 20 325 6 55 17 235
26 400 8 165 19 377 24 470 32 580 48 931 61 1377 l12 398-13 15-12 15-2202 0-2202 0-12-12z"/>
  <path d="M62442 20218 l-12-12 0-843 0-842 19-10 19-10 1955-1 c1076 0
1963-3 1971-6 8-3 16-11 19-17 5-14-6-196-28-472-8-104-19-287-25-405-5-118-14-253-20-300-5-47-14-193-21-325-6-132-13-243-15-247-2-3-11-134-19-289-8-155-19-310-24-343-5-34-15-161-22-284 l-12-223-21-15-21-15-715 2 c-393 1-755 4-803 7 l-88 5-8 16 c-4 9-4 57 0 106 27 346 40 503 44 520 2 11 9 92 15 180 6 88 17 214
25 280 8 66 19 194 26 285 6 91 13 168 15 172 3 4 11 107 19 230 8 123 19 266
25 318 5 52 12 125 15 161 l5 66-15 13-15 12-954 2-955 1-9-10 c-6-5-15-93-20-195-11-190-31-459-56-775-9-99-18-227-21-285-3-58-10-143-16-190-5-47-16-193-24-325-8-132-17-253-20-270-3-16-12-122-20-235-8-113-19-263-25-335-31-397-42-551-55-745-13-191-36-505-50-661 l-4-56 13-18 13-18 2270-1 2270-1 16-14 17-13
0-1362 0-1361-10-65 c-6-36-20-93-32-128 l-22-62-49-56 c-57-64-119-98-203-113 l-59-10-1083-2-1083-3-9-11 c-5-6-10-388-12-919 l-3-908 18-13 18-13 1488-1 1489-1 119 10 c283 24 547 76 733 145
72 26 218 102 291 151 125 84 284 271 366 429 48 95 102 257 138 412 25 113
55 336 76 583 l12 135 4 2459 c2 1353 0 2463-4 2467-5 5-214 9-466 9
l-457 1-16 16-16 16 6 56 c10 92 35 408 77 951 27 348 46 602 58 745 6 66
15 188 21 270 5 83 14 206 20 275 5 69 17 224 25 345 8 121 19 276 25 345 5
69 17 220 25 335 8 116 21 307 30 425 18 253 31 450 46 688 l11 173-12 14-12 15-3097 0-3097 0-12-12z"/>
  <path d="M57240 20115 l-12-15 1-857 c0-471 4-860 9-865 6-6 1043-22
1190-18 16 0 16-54-2-88-7-15-16-45-20-67-4-22-16-67-26-100-11-33-38-121-61-195-23-74-55-173-71-220-16-47-41-119-55-160-23-68-61-162-99-247-8-17-14-34-14-38 0-4-6-21-14-38-8-18-29-66-46-107-17-41-47-108-66-148-19-40-34-78-34-83 0-6-9-27-20-47-17-32-72-147-141-297-10-22-38-76-62-120-24-44-67-125-96-180-30-55-61-111-71-125-10-14-59-97-110-185-114-198-213-352-412-638 l-58-82 0-1380-1-1380 17-4 c10-2 24 5
31 15 8 10 102 109 211 219 168 170 350 366 470 505 l31 35 10-10 10-10 2-2015 c1-1108 6-2025 10-2037 l9-23 2063 0 2063 0 12 12 12 12 0 3547 0
3548-14 14-15 14-723 7 c-398 4-863 5-1034 1 l-311-6-26 10 c-32 13-33 25-7 76 12 22 35 74 52 115 17 41 34 80 39 85 4 6 16 33 27 60 11 28 41
100 66 160 43 101 79 193 156 395 105 278 297 891 341 1090 l19 85 22 19 23
19 671-6 671-6 17 12 17 13-1 859 0 860-17 13-17 12-2302 0-2302 0-12-15z m2958-5597 l12-12 0-1787 0-1787-12-10-13-10-346-8-346-7-21 21-20 20-2 1785-1 1786 18 10 18 10 351 1 350 0 12-12z"/>
  <path d="M17696 17964 l-16-15 0-878 0-877 12-12 12-12 1058 0 1057 0 8-15 c11-19-14-158-88-490-49-223-112-447-200-710-55-165-166-462-203-545-8-19-36-83-61-143-25-59-67-153-94-210-27-56-70-147-96-202-114-239-423-769-578-990-39-55-100-143-137-195-245-353-619-829-895-1140-160-181-185-212-185-229 0-9 9-34 20-56 10-22 36-80 56-130 32-78 108-254 289-670 24-55 53-123 64-152
11-28 77-179 147-335 69-156 144-327 165-380 22-54 53-127 69-163
l29-65 18 0 c17 0 454 432 709 700 334 352 741 831 982 1159 306 414 528 751
740 1121 210 368 236 419 442 854 64 136 130 290 196 461 19 50 39 99 44 110
22 45 188 515 220 620 104 346 199 710 235 899 8 43 17 86 20 95 16 53 72 393
95 576 6 44 14 114 20 155 46 361 69 827 70 1421 l0 435-12 12-12 12-2092
0-2093 0-15-16z"/>
  <path d="M53882 14751 c-12-7-46-144-162-651-61-268-144-615-222-930-38-157-78-321-88-365-31-139-107-423-165-620-14-49-33-121-41-159-8-38-23-89-34-114 l-20-46-11 11 c-6 6-15 78-20 159-5 82-15 210-23 284-8 74-18 178-21 230-3 52-10 122-16 156-5 33-13
105-18 160-16 171-75 697-96 854-8 58-26 195-40 305-14 110-34 265-45 345-10 80-24 190-31 245-7 58-19 107-27 118 l-15 17-591 0 c-325 0-689-3-808-7 l-217-6-5-14 c-3-8 1-58 9-111 8-53 20-133 25-177 6-44 17-120 25-170 26-157 54-338 60-395 3-30 12-95 20-145 39-239 47-296 56-370 5-44 14-102 19-130 6-27 17-99 25-160 42-325 54-411 59-425 3-8 13-84 21-169 9-85 18-157 20-161 2-3 8-62 14-130 6-69 18-186 26-260 28-257 55-547 55-598 l0-51 16-15 15-16 643 0 642 0 18-13 18-13-45-125 c-24-68-62-178-83-244-21-65-46-127-56-137
l-18-18-1929 0-1929 0-11-14-11-13 2-889 3-889 3435 0 3435 0 3 890
2 890-17 13-17 12-647 0-648 0-15 16-16 15 16 37 c9 20 20 48 24 62 4
14 62 178 128 365 156 443 355 1059 427 1325 73 265 181 687 229 890 69 293
142 621 180 805 25 121 54 254 64 295 11 41 25 112 33 158 l13 83-15 10 c-18
11-1589 12-1607 0z"/>
  <path d="M48890 14735 l-13-15 11-58 c6-31 16-95 22-142 6-47 17-119
25-160 31-168 56-313 80-470 14-91 30-187 35-215 16-83 68-401 90-550 47-317 62-413 71-465 5-31 18-121 29-200 10-80 28-210 40-290
11-80 27-197 35-260 8-63 19-142 25-175 5-33 15-105 20-160 19-179
46-381 54-393 l7-12 799 0 799 0 10 18 9 17-19 190 c-10 105-26 237-34
295-8 58-20 155-25 215-6 61-15 135-20 165-6 31-14 98-19 150-13
131-48 406-65 515-8 50-24 155-36 235-95 644-155 1017-235 1455-9 50-23 132-30 183-7 51-20 104-29 117 l-16 25-804 0-804 0-12-15z"/>
  <path d="M46370 13093 c-36-7-166-29-290-49-124-19-310-51-415-70-104-19-273-48-375-65-102-16-279-45-395-64-115-19-372-59-570-90-513-79-614-95-660-105-22-5-54-10-72-10-17 0-39-7-47-16 l-16-15 0-885 0-885 15-5 c7-3 101 15 207 40 106 24 249 57 318
71 69 14 141 30 160 35 19 5 85 21 145 35 214 50 551 130 820 195 66 16 174
41 240 55 120 27 187 42 670 154 143 33 277 63 298 67 22 4 44 15 52 28 l14
21 1 650 c1 358 1 707 1 777 l-1 127-17 9 c-11 5-45 3-83-5z"/>
  <path d="M62356 13031 c-3-4-6-397-6-871 l-1-863 9-9 10-10 2048 2
c1126 0 2051 3 2056 6 4 3 8 393 8 868 l0 862-12 12-12 12-2047 0 c-1152 0-2050-4-2053-9z"/>
</g>
  </g>
</svg>
